<svg xmlns="http://www.w3.org/2000/svg" viewBox="0 0 389.09 122.9"><defs><style>.a{fill:#1e1e1c;}.a,.b{fill-rule:evenodd;}.b{fill:#278656;}</style></defs><title>bfh</title><polyline class="a" points="374.48 122.65 364.66 99.13 360.7 104.66 360.7 122.82 347.82 122.65 347.74 60.17 360.7 60.34 360.78 79.65 373.9 60.17 388.93 60.17 373.57 86.83 389.09 122.73 374.48 122.65"/><polyline class="a" points="329.66 122.82 316.21 91.45 316.29 122.65 304.24 122.65 304.16 60.25 316.04 60.25 329.41 93.19 329.41 60.17 341.22 60.17 341.22 122.82 329.66 122.82"/><path class="a" d="M128.51,122.9a4.18,4.18,0,0,1-2.06-.41c-1.9-1.07-3.38-2.14-4.13-3.63-1.07-2.39-1.9-6.27-.91-6.27l5.86-.16c.08,0,.41,2.23,1.07,3s2,.66,3.47.66a2.08,2.08,0,0,0,1.9-3.05c-1.41-2.81-6.19-3.55-8.67-6a11.91,11.91,0,0,1-3.05-4.29,12.24,12.24,0,0,1,.17-6.44c1.57-4.62,2.72-4.29,6.35-5.61a15.23,15.23,0,0,1,3.88,0c1.24.5,2.31.33,3.63,1.32a7.78,7.78,0,0,1,2.47,3.3c.74,1.65,1.24,4.54.41,4.54l-5.86-.17c-.17,0,0-2.06-2.15-2.23a2,2,0,0,0-2,.74c-.5.74-.66,2.56.16,3.05,1.16.66,4.37,1.57,5.94,2.39a7.56,7.56,0,0,1,3,2.81c.66,1.15,1.07,2.48,1.65,3.63a18.68,18.68,0,0,1,0,5.69,20.71,20.71,0,0,1-2.15,4.29,6.09,6.09,0,0,1-2.48,2,6.52,6.52,0,0,1-2.39.91h-4.13"/><path class="a" d="M169.37,118.53h-3.55l-1.57,4.13H159L166.4,91h3v13l-2,7.84h2v6.77Zm4.54,4.13-1.32-4.13h-3.22v-6.77h2l-2-7.68V91h2.48c2.89,10.57,5,20.8,7.18,31.7h-5.12"/><path class="a" d="M282.45,114.56H275.1L272,122.65H260.91L276.34,60.5h6.11V86.25l-.08-.33-4,15.35h4.13v13.29Zm9.41,8.17L289,114.56h-6.52V101.28h4.13l-4.13-15V60.5l5.12-.08c5.86,20.8,10.15,40.94,14.69,62.32h-10.4"/><path class="a" d="M180.84,122.74V91h9v7.35c-1,0-2.15.08-3,.08v6.11h3v7.43h-3v10.81Zm9-31.78h2.48c2.15,0,3.14.83,4.79,2.73,1.57,1.73,2.48,5.86,2.15,8.25s-3.05,6.11-3.05,6.27c-.08,1,1.24.5,2,4.13l1.07,10.32h-6.11l-.41-6.11a5,5,0,0,0-2.81-4.62h-.08V104.5h1.9a8,8,0,0,0,1.07-1.4V99.46c-.49-.5-.33-1-1.4-1.07a8.67,8.67,0,0,0-1.57-.08V91"/><polyline class="a" points="202.14 122.57 202.14 90.88 219.23 90.88 219.23 99.05 208.41 99.05 208.5 103.17 217.24 103.26 217.16 110.11 208.57 110.19 208.5 115.14 219.23 115.14 219.14 122.65 202.14 122.57"/><path class="a" d="M142.38,122.82V91c2.81,0,5.78-.08,8.83.17V99c-.83-.08-2,.08-3,.08l.08,6.85c.74,0,1.82.08,2.89.08v7.1c-.83,0-1.82.08-3,.16v9.41l-5.86.08Zm8.83-31.7,2.48.25a17.13,17.13,0,0,1,2.81,1.24,21.37,21.37,0,0,1,1.82,2c1.9,3.14,1.65,6.11,1.73,9.49-.33,1.57-.66,3.05-1.07,4.62-.66.74-1.24,1.65-2.06,2.64a11.78,11.78,0,0,1-5.7,1.82v-7.1c1.32-.08,2.48-.41,2.64-1.65.41-2.31.91-4.46-2-5.28a1.57,1.57,0,0,0-.66-.08V91.12"/><polyline class="a" points="79.24 122.65 79.32 60.25 91.7 60.17 91.7 81.3 103.67 81.22 103.59 60.25 116.46 60.25 116.38 122.73 103.67 122.82 103.59 97.64 91.7 97.73 91.7 122.65 79.24 122.65"/><polyline class="a" points="42.59 122.65 42.59 60.09 75.28 60.17 75.36 75.77 54.89 75.77 54.89 85.02 71.4 85.1 71.4 99.95 54.81 99.87 54.89 122.73 42.59 122.65"/><path class="a" d="M.08,122.82,0,60.17c5.53,0,12.79-.08,18.24-.08V74.2c-2.14,0-4.29-.08-6.27-.08l-.17,9.82h6.44V96.41l-6.52-.08-.08,11.8,6.6.08v14.53l-18.16.08ZM18.24,60.09c2.48,0,4.46.08,5.86.08a7.79,7.79,0,0,1,5.37,2.31,19.62,19.62,0,0,1,2.15,2.31,17,17,0,0,1,2.14,4.46,9.17,9.17,0,0,1,.74,3.55,42.16,42.16,0,0,1,0,6.44c-.08,1.73.16,1.65-1.07,4.13A24.07,24.07,0,0,1,30.37,88c-.5.66-.41.16,0,.74S32,89.47,33,91.21a47.6,47.6,0,0,1,3.05,7.51,11,11,0,0,1,.49,4.29,36.33,36.33,0,0,1-.49,6.85,29.38,29.38,0,0,1-1.57,4.29,10.41,10.41,0,0,1-3.05,5,31.74,31.74,0,0,1-5.37,3.55l-7.84.08V108.21h1.07c1.4-.33,2.64-.66,3.88-.91.58-1,1.07-1.73,1.57-2.48a18.71,18.71,0,0,0-.16-6c-.83-.91-1.4-1.65-2-2.39H18.24V83.94h.83c2.48-.74,2.48-.33,3.8-2.15a25.89,25.89,0,0,0,.33-3.38c-.91-3.22-.17-3-3.38-4.29a9.59,9.59,0,0,1-1.57.08V60.09"/><path class="a" d="M224.92,122.82l-.08-62.65c5.53,0,12.87-.08,18.32-.08V74a52.67,52.67,0,0,0-6.35.17l-.17,9.82h6.52V96.41l-6.6-.08L236.47,108l6.69.17v14.53l-18.24.08Zm18.24-62.73c2.39,0,4.37.08,5.78.08a7.94,7.94,0,0,1,5.37,2.31c.66.66,1.32,1.4,2.15,2.31s1.73,3.47,2.14,4.46a10.88,10.88,0,0,1,.75,3.55,42.65,42.65,0,0,1,0,6.44,7.1,7.1,0,0,1-1.07,4.13A24,24,0,0,1,255.21,88c-.58.66-.41.16,0,.74s1.65.74,2.64,2.48a56.62,56.62,0,0,1,3.05,7.51,10.89,10.89,0,0,1,.41,4.29,36.46,36.46,0,0,1-.41,6.85,29.56,29.56,0,0,1-1.57,4.29,11.12,11.12,0,0,1-3.05,5,31.91,31.91,0,0,1-5.36,3.55l-7.76.08V108.21h1c1.4-.33,2.89-.25,3.88-.91s1.08-1.73,1.49-2.48a11.55,11.55,0,0,0-.08-6c-.83-.91-1.4-1.65-2.06-2.39h-4.21V83.94h.74c2.89-1,4.37-1.73,4.13-5.53-.16-2.23-.41-3.72-3.38-4.29a9.08,9.08,0,0,0-1.49-.17V60.09"/><path class="b" d="M160,63.88v10H138V64c7.26,0,14.69,0,22-.08Zm0-63.8V15l-4.45,4.46,4.45,4V37.47L148.74,26.74l-6,5.45,13.12,14.69v8.25l-49.77.08,8.25-8.42,28.56.08-13.29-15.1L159.71.08Zm14.77,27.73-.08-16.92,4.54,4.29V1.32L178,0,160,.08V15l4.46-4.37v17L160,23.52V37.47l4.54,4.29V60.42a8.87,8.87,0,0,0-.58,2.23c-.83.41-1.57.91-2.31,1.24H160v10l19.23-.08V63.88H179a27.28,27.28,0,0,0-2.8-.66c-1.49-1.4-1.08-.66-1.41-2.72-.25-7.18,0-9.57,0-18.4L179.27,38V23.69l-4.46,4.13Zm4.46,46V63.88l23,.08v9.82Zm0-58.6,4.62,4.29-4.62,4.21V38l11.8-10.9,5.45,5L183.4,46.63v8.5l50.1.08L225.33,47l-28.06-.17,12.38-14.85L179.27,1.32V15.19"/></svg>