<svg xmlns="http://www.w3.org/2000/svg" viewBox="0 0 946.55 241.82"><defs><style>.a{fill:#3b6332;}.b{fill:#1e1e1c;}</style></defs><title>Artboard 2</title><path class="a" d="M215.83,193.25c-.48,0-.92,0-1.37,0-3.94,0-6.87-.83-8.86-2.81s-3.26-5.37-3.26-11.15v-47l44.6-48,15.7,16.08-36.38,39.08v30.22H373.62l-28.34-27.92H263.86l38.79-41.45L203.1,0H169.74L71,100.36l38.79,41.43H28.36L0,169.71H147.37V139.49L111,100.41l15.7-16.08,44.6,48v47c0,5.78-1.29,9.18-3.28,11.15s-4.9,2.81-8.84,2.81c-.44,0-.9,0-1.35,0H88.4v28.7H285.21v-28.7H215.83ZM202.34,88.1V40l21.49,24.22ZM149.8,64.24,171.29,40V88.1Z"/><path class="b" d="M396.45,123.06V.66h24L470.6,82.4V.66h23V123.06h-24.8L419.41,43.24v79.82Z"/><path class="b" d="M570.87,94.84l23.38,3.92q-4.51,12.86-14.24,19.58t-24.34,6.72q-23.13,0-34.23-15.11-8.77-12.11-8.77-30.56,0-22,11.52-34.53t29.14-12.48q19.79,0,31.23,13.07t10.94,40H536.72q.25,10.44,5.68,16.24a17.75,17.75,0,0,0,13.53,5.8,14.37,14.37,0,0,0,9.27-3Q569,101.52,570.87,94.84Zm1.34-23.71q-.25-10.19-5.26-15.49a16.93,16.93,0,0,0-24.88.29q-5,5.59-4.93,15.2Z"/><path class="b" d="M606.36,97.76l23.55-3.59q1.5,6.85,6.09,10.4t12.86,3.55q9.1,0,13.69-3.34a7.45,7.45,0,0,0,3.09-6.26A6.17,6.17,0,0,0,664,94.09q-1.75-1.67-7.85-3.09-28.39-6.26-36-11.44a22.85,22.85,0,0,1-10.52-20q0-11.52,9.1-19.37t28.22-7.85q18.2,0,27.05,5.93t12.19,17.53l-22.13,4.09A13.69,13.69,0,0,0,658.67,52q-4-2.76-11.31-2.76-9.27,0-13.28,2.59a5.56,5.56,0,0,0-2.67,4.76,5.19,5.19,0,0,0,2.34,4.26q3.17,2.34,21.92,6.6t26.18,10.44q7.35,6.26,7.35,17.45,0,12.19-10.19,21t-30.14,8.77q-18.12,0-28.68-7.35A33.85,33.85,0,0,1,606.36,97.76Z"/><path class="b" d="M701.46,97.76,725,94.17q1.5,6.85,6.1,10.4T744,108.11q9.1,0,13.69-3.34a7.45,7.45,0,0,0,3.09-6.26,6.16,6.16,0,0,0-1.67-4.43q-1.75-1.67-7.85-3.09-28.39-6.26-36-11.44a22.84,22.84,0,0,1-10.52-20q0-11.52,9.1-19.37T742,32.38q18.2,0,27.05,5.93t12.19,17.53l-22.13,4.09A13.68,13.68,0,0,0,753.77,52q-4-2.76-11.31-2.76-9.27,0-13.28,2.59a5.56,5.56,0,0,0-2.67,4.76,5.18,5.18,0,0,0,2.34,4.26q3.17,2.34,21.92,6.6t26.18,10.44q7.35,6.26,7.35,17.45,0,12.19-10.19,21T744,125.06q-18.12,0-28.68-7.35A33.84,33.84,0,0,1,701.46,97.76Z"/><path class="b" d="M856.18,94.84l23.38,3.92q-4.51,12.86-14.24,19.58T841,125.06q-23.13,0-34.23-15.11Q798,97.85,798,79.39q0-22,11.52-34.53t29.14-12.48q19.79,0,31.23,13.07t10.94,40H822q.25,10.44,5.68,16.24a17.76,17.76,0,0,0,13.53,5.8,14.36,14.36,0,0,0,9.27-3Q854.26,101.52,856.18,94.84Zm1.34-23.71q-.25-10.19-5.26-15.49a16.93,16.93,0,0,0-24.88.29q-5,5.59-4.93,15.2Z"/><path class="b" d="M940.59,34.39v18.7h-16V88.83q0,10.85.46,12.65a5.14,5.14,0,0,0,2.09,3,6.62,6.62,0,0,0,4,1.17q3.26,0,9.44-2.25l2,18.2A46.65,46.65,0,0,1,924,125.06a29.4,29.4,0,0,1-11.44-2.13,16.71,16.71,0,0,1-7.47-5.51,21.75,21.75,0,0,1-3.3-9.14q-.75-4.09-.75-16.53V53.09H890.25V34.39H901V16.77L924.56,3.08V34.39Z"/><path class="b" d="M395.93,192.52l10.28-.9a22.67,22.67,0,0,0,3.4,10.14,18.54,18.54,0,0,0,8.28,6.4,31.35,31.35,0,0,0,12.63,2.44,30.28,30.28,0,0,0,11-1.85,15.27,15.27,0,0,0,7.1-5.08,11.79,11.79,0,0,0,2.33-7,10.72,10.72,0,0,0-2.25-6.77Q446.46,187,441.3,185a145.09,145.09,0,0,0-14.66-4q-11.34-2.72-15.89-5.14a22.27,22.27,0,0,1-8.79-7.66,18.78,18.78,0,0,1-2.89-10.25,20.93,20.93,0,0,1,3.54-11.65,21.91,21.91,0,0,1,10.33-8.23,39.19,39.19,0,0,1,15.1-2.81,41.27,41.27,0,0,1,16.14,2.95,23.29,23.29,0,0,1,10.75,8.68,24.93,24.93,0,0,1,4,13l-10.44.79q-.84-7.8-5.7-11.79t-14.35-4q-9.88,0-14.4,3.62a10.86,10.86,0,0,0-4.52,8.73,9.36,9.36,0,0,0,3.2,7.3q3.14,2.86,16.42,5.87t18.22,5.25Q454.6,178.93,458,184a20.46,20.46,0,0,1,3.43,11.71,22.4,22.4,0,0,1-3.76,12.38,24.78,24.78,0,0,1-10.81,9A37.66,37.66,0,0,1,431,220.37q-11.17,0-18.73-3.26a26.22,26.22,0,0,1-11.85-9.8A27.77,27.77,0,0,1,395.93,192.52Z"/><path class="b" d="M475,241.82V159.33h9.21v7.75a22.68,22.68,0,0,1,7.36-6.82,20.2,20.2,0,0,1,9.94-2.27A23.57,23.57,0,0,1,515,161.91,24.12,24.12,0,0,1,523.84,173a40.49,40.49,0,0,1,3,15.69,39.87,39.87,0,0,1-3.29,16.48A24.77,24.77,0,0,1,514,216.41a24.52,24.52,0,0,1-13.17,3.9,19,19,0,0,1-9.07-2.13,20.62,20.62,0,0,1-6.6-5.39v29Zm9.15-52.33q0,11.51,4.66,17a14.29,14.29,0,0,0,11.29,5.5q6.74,0,11.54-5.7t4.8-17.66q0-11.4-4.69-17.07t-11.2-5.67q-6.46,0-11.43,6T484.2,189.49Z"/><path class="b" d="M577.91,211.61a37.6,37.6,0,0,1-10.81,6.74,31.23,31.23,0,0,1-11.15,2q-9.83,0-15.1-4.8a15.85,15.85,0,0,1-5.28-12.27,16.31,16.31,0,0,1,2-8,16.49,16.49,0,0,1,5.22-5.81,24.56,24.56,0,0,1,7.27-3.31,72.18,72.18,0,0,1,9-1.52q12.24-1.46,18-3.48.06-2.08.06-2.64,0-6.18-2.86-8.7-3.88-3.42-11.51-3.42-7.13,0-10.53,2.5t-5,8.84l-9.88-1.35a24.48,24.48,0,0,1,4.44-10.25,19.44,19.44,0,0,1,8.93-6A39.83,39.83,0,0,1,564.21,158a35.83,35.83,0,0,1,12.41,1.8,16.37,16.37,0,0,1,7,4.52,15.92,15.92,0,0,1,3.14,6.88,56.91,56.91,0,0,1,.51,9.32V194q0,14.09.64,17.83a22.5,22.5,0,0,0,2.56,7.16H579.94A21.44,21.44,0,0,1,577.91,211.61ZM577.07,189q-5.5,2.25-16.51,3.82a38.13,38.13,0,0,0-8.82,2,8.78,8.78,0,0,0-4,3.28,8.93,8.93,0,0,0,1.66,11.54q3.06,2.7,9,2.7a20.83,20.83,0,0,0,10.39-2.56,15.73,15.73,0,0,0,6.68-7q1.63-3.42,1.63-10.11Z"/><path class="b" d="M602.85,219V159.33h9.1v9q3.48-6.35,6.43-8.37a11.22,11.22,0,0,1,6.49-2,19.72,19.72,0,0,1,10.39,3.26l-3.48,9.38a14.45,14.45,0,0,0-7.41-2.19,9.63,9.63,0,0,0-6,2,10.8,10.8,0,0,0-3.76,5.53A39.37,39.37,0,0,0,613,187.74V219Z"/><path class="b" d="M682.08,199.76l10.44,1.29a25.48,25.48,0,0,1-9.15,14.21q-6.68,5.05-17.07,5.05-13.08,0-20.75-8.06t-7.67-22.6q0-15,7.75-23.36t20.1-8.31q12,0,19.54,8.14T692.86,189q0,.9-.06,2.7H648.33q.56,9.83,5.56,15A16.55,16.55,0,0,0,666.36,212a15.46,15.46,0,0,0,9.49-2.92Q679.77,206.16,682.08,199.76Zm-33.19-16.34h33.3q-.67-7.52-3.82-11.29a15.49,15.49,0,0,0-12.52-5.84A16.05,16.05,0,0,0,654.14,171Q649.4,175.62,648.89,183.42Z"/><path class="b" d="M714.53,219h-9.38V136.65h10.11V166a20,20,0,0,1,16.34-8A25,25,0,0,1,742,160.2a21.29,21.29,0,0,1,8.09,6.23,30.16,30.16,0,0,1,5,9.69,40,40,0,0,1,1.8,12.13q0,15.33-7.58,23.7t-18.19,8.37a19,19,0,0,1-16.57-8.82Zm-.11-30.27q0,10.73,2.92,15.5,4.77,7.81,12.91,7.81,6.63,0,11.46-5.76t4.83-17.15q0-11.68-4.63-17.24a14.11,14.11,0,0,0-11.2-5.56q-6.63,0-11.46,5.76T714.42,188.7Z"/><path class="b" d="M808.08,211.61a37.62,37.62,0,0,1-10.81,6.74,31.22,31.22,0,0,1-11.15,2q-9.83,0-15.1-4.8a15.85,15.85,0,0,1-5.28-12.27,16.31,16.31,0,0,1,2-8,16.48,16.48,0,0,1,5.22-5.81,24.55,24.55,0,0,1,7.27-3.31,72.18,72.18,0,0,1,9-1.52q12.24-1.46,18-3.48.05-2.08.06-2.64,0-6.18-2.86-8.7-3.87-3.42-11.51-3.42-7.13,0-10.53,2.5t-5,8.84l-9.88-1.35a24.49,24.49,0,0,1,4.44-10.25,19.43,19.43,0,0,1,8.93-6A39.83,39.83,0,0,1,794.38,158a35.84,35.84,0,0,1,12.41,1.8,16.37,16.37,0,0,1,7,4.52,15.9,15.9,0,0,1,3.14,6.88,56.8,56.8,0,0,1,.51,9.32V194q0,14.09.65,17.83a22.45,22.45,0,0,0,2.55,7.16H810.11A21.39,21.39,0,0,1,808.08,211.61ZM807.24,189q-5.5,2.25-16.51,3.82a38.16,38.16,0,0,0-8.82,2,8.79,8.79,0,0,0-4,3.28,8.93,8.93,0,0,0,1.66,11.54q3.06,2.7,9,2.7a20.84,20.84,0,0,0,10.39-2.56,15.74,15.74,0,0,0,6.68-7q1.63-3.42,1.63-10.11Z"/><path class="b" d="M833.13,219V159.33h9.1v8.48q6.57-9.82,19-9.83a24.9,24.9,0,0,1,9.91,1.94,15.6,15.6,0,0,1,6.77,5.08,19.54,19.54,0,0,1,3.14,7.47,58,58,0,0,1,.56,9.83V219H871.48V182.69q0-6.18-1.18-9.24a9.73,9.73,0,0,0-4.18-4.88,13.32,13.32,0,0,0-7-1.83,16.38,16.38,0,0,0-11.15,4.1q-4.69,4.1-4.69,15.55V219Z"/><path class="b" d="M897.14,219V136.65h10.11v46.94l23.92-24.26h13.08l-22.8,22.12L946.55,219H934.09l-19.71-30.49-7.13,6.85V219Z"/></svg>