<svg xmlns="http://www.w3.org/2000/svg" viewBox="0 0 166.66 75.94"><defs><style>.a{fill:#4a4a49;}.b{fill:#98bc37;}.c{fill:#007580;}</style></defs><title>Artboard 1</title><path class="a" d="M5.18,60.63c3.6,0,6.11,1.3,6.11,5.27a5.28,5.28,0,0,1-2.19,4.23l2.67,5.56H7.93C7.21,74.14,6.52,72.59,5.78,71H3.42v4.64H0V60.63ZM3.42,68.11h2a2.19,2.19,0,0,0,2.32-2.34,2.1,2.1,0,0,0-2.32-2.22h-2Z"/><path class="a" d="M18.32,75.94c-3.37,0-5.84-1.9-5.84-6s2.46-6,5.84-6,5.86,2,5.86,6-2.49,6-5.86,6m0-9.18c-1.78,0-2.46,1.13-2.46,3.18s.68,3.16,2.46,3.16,2.44-1.11,2.44-3.16-.66-3.18-2.44-3.18"/><path class="a" d="M32.6,75.68V68c0-.75-.33-1.13-1.14-1.13a4.58,4.58,0,0,0-2.26.86v7.9H25.89V64.16H29v1.15h.08a6.46,6.46,0,0,1,3.56-1.4,3,3,0,0,1,2.9,1.57,6.42,6.42,0,0,1,3.81-1.57c1.82,0,3.29,1,3.29,3.49v8.28H39.31V68c0-.75-.33-1.13-1.14-1.13a4,4,0,0,0-2.26.86v7.9Z"/><path class="a" d="M52.92,64.22l-.1,2.84a19.73,19.73,0,0,0-3-.33c-1.37,0-1.95.23-1.95.82s.85.75,2,1c1.7.31,3.73.79,3.73,3.51s-1.78,3.91-5,3.91a30.33,30.33,0,0,1-4-.27l.08-2.93a28.2,28.2,0,0,0,3.73.4c1.32,0,1.78-.4,1.78-1s-1.06-.75-2.28-1c-1.55-.31-3.42-.94-3.42-3.43,0-2.8,1.95-3.83,4.95-3.83a19,19,0,0,1,3.5.31"/><path class="a" d="M60.59,63.91a13.25,13.25,0,0,1,1.55.1V59.73h3.29v16H62.72L62.43,75a6.49,6.49,0,0,1-3.17.86c-2.38,0-4.62-1.53-4.62-5.65,0-4.87,2.59-6.34,5.94-6.34M60.05,73a5.24,5.24,0,0,0,2.07-.54V66.75a8.58,8.58,0,0,0-1.2-.08c-2,0-2.9.94-2.9,3.39,0,2,.75,3,2,3"/><path class="a" d="M74,68.55V68c0-.77-.5-1.34-2.26-1.34a15.73,15.73,0,0,0-3.69.52V64.39a23.93,23.93,0,0,1,4.51-.48c2.94,0,4.74,1.42,4.74,4.29v7.49H74.45l-.25-1.13h-.08a6,6,0,0,1-3.5,1.3,3.41,3.41,0,0,1-3.56-3.74c0-2.11,1.53-3.56,4.43-3.56Zm0,2.17H72.07c-1.16,0-1.68.4-1.68,1.13a1.2,1.2,0,0,0,1.37,1.23,4.43,4.43,0,0,0,2.2-.6Z"/><rect class="a" x="79.5" y="59.73" width="3.31" height="15.96"/><path class="a" d="M93.16,64.22l-.1,2.84a19.73,19.73,0,0,0-3-.33c-1.37,0-1.95.23-1.95.82s.85.75,2,1c1.7.31,3.73.79,3.73,3.51s-1.78,3.91-5,3.91a30.32,30.32,0,0,1-4-.27l.08-2.93a28.22,28.22,0,0,0,3.73.4c1.32,0,1.78-.4,1.78-1s-1.06-.75-2.28-1c-1.55-.31-3.42-.94-3.42-3.43,0-2.8,1.95-3.83,4.95-3.83a19,19,0,0,1,3.5.31"/><path class="a" d="M100,75.94a17,17,0,0,1-4.54-.71V59.73h3.32v5.08a6.76,6.76,0,0,1,3.31-.9c2.13,0,4.16,1.55,4.16,5.69,0,4.87-2.88,6.34-6.25,6.34m1-9.12a5.2,5.2,0,0,0-2.19.61v5.65a6.38,6.38,0,0,0,1.34.13c2,0,2.75-1.09,2.75-3.41,0-2-.6-3-1.9-3"/><path class="a" d="M114.17,68.55V68c0-.77-.5-1.34-2.26-1.34a15.73,15.73,0,0,0-3.69.52V64.39a23.93,23.93,0,0,1,4.51-.48c2.94,0,4.74,1.42,4.74,4.29v7.49h-2.82l-.25-1.13h-.08a6,6,0,0,1-3.5,1.3,3.41,3.41,0,0,1-3.56-3.74c0-2.11,1.53-3.56,4.43-3.56Zm0,2.17h-1.89c-1.16,0-1.68.4-1.68,1.13A1.2,1.2,0,0,0,112,73.09a4.43,4.43,0,0,0,2.2-.6Z"/><path class="a" d="M126.69,75.68V68c0-.75-.25-1.13-1.06-1.13a6.56,6.56,0,0,0-2.61.86v7.9h-3.31V64.16h3.08v1.15h.08a7.72,7.72,0,0,1,3.77-1.4c2,0,3.36,1,3.36,3.49v8.28Z"/><path class="a" d="M135.57,71.5v4.18h-3.31v-16h3.31v8.91l.93-.42a3.53,3.53,0,0,0,2.11-3.58v-.48h3.31v.36a6.07,6.07,0,0,1-2.61,5.29l1,1.72a2.75,2.75,0,0,0,2.51,1.21v3a6,6,0,0,1-1.06.08,4.74,4.74,0,0,1-4.41-2.74l-1.08-1.94Z"/><path class="a" d="M154.25,75.2a16.27,16.27,0,0,1-4.64.73c-3.81,0-5.84-1.88-5.84-6s2.22-6,5.59-6c4,0,5.07,2.53,5.07,5.44v1.48h-7.18c0,1.65,1.22,2.2,3.21,2.2a15.93,15.93,0,0,0,3.79-.67Zm-3.17-6.76a1.75,1.75,0,0,0-1.93-1.94,1.89,1.89,0,0,0-1.95,1.94Z"/><path class="a" d="M163.34,75.68V68c0-.75-.25-1.13-1.06-1.13a6.56,6.56,0,0,0-2.61.86v7.9h-3.31V64.16h3.08v1.15h.08a7.72,7.72,0,0,1,3.77-1.4c2,0,3.36,1,3.36,3.49v8.28Z"/><path class="b" d="M75.26,16.12a8.06,8.06,0,0,1,8.06,8.06H99.45a24.18,24.18,0,0,0-48.36,0H67.2a8.06,8.06,0,0,1,8.06-8.06"/><path class="c" d="M91.39,32.24a8.06,8.06,0,0,0,8.06-8.06h16.12a24.18,24.18,0,1,1-48.36,0H83.33a8.06,8.06,0,0,0,8.06,8.06"/></svg>